{
	"asset":{
		"generator":"Khronos glTF Blender I/O v4.2.60",
		"version":"2.0"
	},
	"scene":0,
	"scenes":[
		{
			"name":"Scene",
			"nodes":[
				0,
				1,
				2,
				3,
				4,
				5
			]
		}
	],
	"nodes":[
		{
			"mesh":0,
			"name":"Plane"
		},
		{
			"mesh":1,
			"name":"Plane.001",
			"scale":[
				0.09868758916854858,
				1,
				1
			],
			"translation":[
				-0.8775728940963745,
				0.17510586977005005,
				0
			]
		},
		{
			"mesh":2,
			"name":"Cube",
			"scale":[
				1.010907530784607,
				1.010907530784607,
				1.010907530784607
			]
		},
		{
			"mesh":3,
			"name":"Plane.002",
			"translation":[
				-0.02658967487514019,
				0,
				0.02618054300546646
			]
		},
		{
			"mesh":4,
			"name":"Cube.001",
			"scale":[
				1.010907530784607,
				1.010907530784607,
				1.010907530784607
			],
			"translation":[
				0,
				0,
				0.04735539108514786
			]
		},
		{
			"mesh":5,
			"name":"Cube.002",
			"scale":[
				1.010907530784607,
				1.010907530784607,
				1.010907530784607
			],
			"translation":[
				-0.08211808651685715,
				-0.011912982910871506,
				0.005768786184489727
			]
		}
	],
	"meshes":[
		{
			"name":"Plane",
			"primitives":[
				{
					"attributes":{
						"POSITION":0,
						"NORMAL":1,
						"TEXCOORD_0":2
					},
					"indices":3
				}
			]
		},
		{
			"name":"Plane.001",
			"primitives":[
				{
					"attributes":{
						"POSITION":4,
						"NORMAL":5,
						"TEXCOORD_0":6
					},
					"indices":7
				}
			]
		},
		{
			"name":"Cube.001",
			"primitives":[
				{
					"attributes":{
						"POSITION":8,
						"NORMAL":9,
						"TEXCOORD_0":10
					},
					"indices":11
				}
			]
		},
		{
			"name":"Plane.002",
			"primitives":[
				{
					"attributes":{
						"POSITION":12,
						"NORMAL":13,
						"TEXCOORD_0":14
					},
					"indices":3
				}
			]
		},
		{
			"name":"Cube.003",
			"primitives":[
				{
					"attributes":{
						"POSITION":15,
						"NORMAL":16,
						"TEXCOORD_0":17
					},
					"indices":18
				}
			]
		},
		{
			"name":"Cube.002",
			"primitives":[
				{
					"attributes":{
						"POSITION":19,
						"NORMAL":20,
						"TEXCOORD_0":21
					},
					"indices":22
				}
			]
		}
	],
	"accessors":[
		{
			"bufferView":0,
			"componentType":5126,
			"count":24,
			"max":[
				1,
				0.16999998688697815,
				1
			],
			"min":[
				-1,
				0,
				-1
			],
			"type":"VEC3"
		},
		{
			"bufferView":1,
			"componentType":5126,
			"count":24,
			"type":"VEC3"
		},
		{
			"bufferView":2,
			"componentType":5126,
			"count":24,
			"type":"VEC2"
		},
		{
			"bufferView":3,
			"componentType":5123,
			"count":36,
			"type":"SCALAR"
		},
		{
			"bufferView":4,
			"componentType":5126,
			"count":4,
			"max":[
				1,
				0,
				1
			],
			"min":[
				-1,
				0,
				-1
			],
			"type":"VEC3"
		},
		{
			"bufferView":5,
			"componentType":5126,
			"count":4,
			"type":"VEC3"
		},
		{
			"bufferView":6,
			"componentType":5126,
			"count":4,
			"type":"VEC2"
		},
		{
			"bufferView":7,
			"componentType":5123,
			"count":6,
			"type":"SCALAR"
		},
		{
			"bufferView":8,
			"componentType":5126,
			"count":180,
			"max":[
				1.1711645126342773,
				2.013397455215454,
				1.444230556488037
			],
			"min":[
				-1.446379542350769,
				0.0018896833062171936,
				-1.1724889278411865
			],
			"type":"VEC3"
		},
		{
			"bufferView":9,
			"componentType":5126,
			"count":180,
			"type":"VEC3"
		},
		{
			"bufferView":10,
			"componentType":5126,
			"count":180,
			"type":"VEC2"
		},
		{
			"bufferView":11,
			"componentType":5123,
			"count":276,
			"type":"SCALAR"
		},
		{
			"bufferView":12,
			"componentType":5126,
			"count":24,
			"max":[
				-0.16965048015117645,
				0.6804139614105225,
				1.0472362041473389
			],
			"min":[
				-1.0311980247497559,
				0.5104140043258667,
				-0.4930495619773865
			],
			"type":"VEC3"
		},
		{
			"bufferView":13,
			"componentType":5126,
			"count":24,
			"type":"VEC3"
		},
		{
			"bufferView":14,
			"componentType":5126,
			"count":24,
			"type":"VEC2"
		},
		{
			"bufferView":15,
			"componentType":5126,
			"count":24,
			"max":[
				0.8722593784332275,
				1.488185167312622,
				0.9999999403953552
			],
			"min":[
				-0.5142419338226318,
				1.3369438648223877,
				0.6748310327529907
			],
			"type":"VEC3"
		},
		{
			"bufferView":16,
			"componentType":5126,
			"count":24,
			"type":"VEC3"
		},
		{
			"bufferView":17,
			"componentType":5126,
			"count":24,
			"type":"VEC2"
		},
		{
			"bufferView":18,
			"componentType":5123,
			"count":36,
			"type":"SCALAR"
		},
		{
			"bufferView":19,
			"componentType":5126,
			"count":28,
			"max":[
				-0.9032166600227356,
				1.4466243982315063,
				0.7214391231536865
			],
			"min":[
				-0.9991583228111267,
				0.8148443102836609,
				0.3800525367259979
			],
			"type":"VEC3"
		},
		{
			"bufferView":20,
			"componentType":5126,
			"count":28,
			"type":"VEC3"
		},
		{
			"bufferView":21,
			"componentType":5126,
			"count":28,
			"type":"VEC2"
		},
		{
			"bufferView":22,
			"componentType":5123,
			"count":54,
			"type":"SCALAR"
		}
	],
	"bufferViews":[
		{
			"buffer":0,
			"byteLength":288,
			"byteOffset":0,
			"target":34962
		},
		{
			"buffer":0,
			"byteLength":288,
			"byteOffset":288,
			"target":34962
		},
		{
			"buffer":0,
			"byteLength":192,
			"byteOffset":576,
			"target":34962
		},
		{
			"buffer":0,
			"byteLength":72,
			"byteOffset":768,
			"target":34963
		},
		{
			"buffer":0,
			"byteLength":48,
			"byteOffset":840,
			"target":34962
		},
		{
			"buffer":0,
			"byteLength":48,
			"byteOffset":888,
			"target":34962
		},
		{
			"buffer":0,
			"byteLength":32,
			"byteOffset":936,
			"target":34962
		},
		{
			"buffer":0,
			"byteLength":12,
			"byteOffset":968,
			"target":34963
		},
		{
			"buffer":0,
			"byteLength":2160,
			"byteOffset":980,
			"target":34962
		},
		{
			"buffer":0,
			"byteLength":2160,
			"byteOffset":3140,
			"target":34962
		},
		{
			"buffer":0,
			"byteLength":1440,
			"byteOffset":5300,
			"target":34962
		},
		{
			"buffer":0,
			"byteLength":552,
			"byteOffset":6740,
			"target":34963
		},
		{
			"buffer":0,
			"byteLength":288,
			"byteOffset":7292,
			"target":34962
		},
		{
			"buffer":0,
			"byteLength":288,
			"byteOffset":7580,
			"target":34962
		},
		{
			"buffer":0,
			"byteLength":192,
			"byteOffset":7868,
			"target":34962
		},
		{
			"buffer":0,
			"byteLength":288,
			"byteOffset":8060,
			"target":34962
		},
		{
			"buffer":0,
			"byteLength":288,
			"byteOffset":8348,
			"target":34962
		},
		{
			"buffer":0,
			"byteLength":192,
			"byteOffset":8636,
			"target":34962
		},
		{
			"buffer":0,
			"byteLength":72,
			"byteOffset":8828,
			"target":34963
		},
		{
			"buffer":0,
			"byteLength":336,
			"byteOffset":8900,
			"target":34962
		},
		{
			"buffer":0,
			"byteLength":336,
			"byteOffset":9236,
			"target":34962
		},
		{
			"buffer":0,
			"byteLength":224,
			"byteOffset":9572,
			"target":34962
		},
		{
			"buffer":0,
			"byteLength":108,
			"byteOffset":9796,
			"target":34963
		}
	],
	"buffers":[
		{
			"byteLength":9904,
			"uri":"home2.bin"
		}
	]
}
